<svg xmlns="http://www.w3.org/2000/svg" xmlns:xlink="http://www.w3.org/1999/xlink" width="500" zoomAndPan="magnify" viewBox="0 0 375 374.999991" height="500" preserveAspectRatio="xMidYMid meet" version="1.0"><defs><g/><clipPath id="b65f6a13b1"><path d="M 187.5 0 C 83.945312 0 0 83.945312 0 187.5 C 0 291.054688 83.945312 375 187.5 375 C 291.054688 375 375 291.054688 375 187.5 C 375 83.945312 291.054688 0 187.5 0 Z M 187.5 0 " clip-rule="nonzero"/></clipPath></defs><g clip-path="url(#b65f6a13b1)"><rect x="-37.5" width="450" fill="#ff7c44" y="-37.499999" height="449.999989" fill-opacity="1"/></g><g fill="#fafafa" fill-opacity="1"><g transform="translate(141.867183, 163.500517)"><g><path d="M 40.90625 -75.1875 C 47.289062 -75.1875 52.890625 -73.789062 57.703125 -71 C 62.523438 -68.21875 66.101562 -64.710938 68.4375 -60.484375 L 68.4375 -73.984375 L 80.859375 -73.984375 L 80.859375 1.625 C 80.859375 8.375 79.414062 14.378906 76.53125 19.640625 C 73.65625 24.910156 69.539062 29.03125 64.1875 32 C 58.832031 34.96875 52.601562 36.453125 45.5 36.453125 C 35.78125 36.453125 27.675781 34.15625 21.1875 29.5625 C 14.707031 24.976562 10.882812 18.722656 9.71875 10.796875 L 21.875 10.796875 C 23.21875 15.296875 26.003906 18.914062 30.234375 21.65625 C 34.460938 24.40625 39.550781 25.78125 45.5 25.78125 C 52.25 25.78125 57.757812 23.664062 62.03125 19.4375 C 66.300781 15.207031 68.4375 9.269531 68.4375 1.625 L 68.4375 -13.90625 C 66.007812 -9.582031 62.410156 -5.976562 57.640625 -3.09375 C 52.867188 -0.21875 47.289062 1.21875 40.90625 1.21875 C 34.332031 1.21875 28.367188 -0.398438 23.015625 -3.640625 C 17.660156 -6.878906 13.453125 -11.425781 10.390625 -17.28125 C 7.335938 -23.132812 5.8125 -29.796875 5.8125 -37.265625 C 5.8125 -44.816406 7.335938 -51.453125 10.390625 -57.171875 C 13.453125 -62.890625 17.660156 -67.320312 23.015625 -70.46875 C 28.367188 -73.613281 34.332031 -75.1875 40.90625 -75.1875 Z M 68.4375 -37.125 C 68.4375 -42.707031 67.3125 -47.566406 65.0625 -51.703125 C 62.8125 -55.847656 59.773438 -59.019531 55.953125 -61.21875 C 52.128906 -63.425781 47.921875 -64.53125 43.328125 -64.53125 C 38.742188 -64.53125 34.5625 -63.445312 30.78125 -61.28125 C 27 -59.125 23.984375 -55.972656 21.734375 -51.828125 C 19.484375 -47.691406 18.359375 -42.835938 18.359375 -37.265625 C 18.359375 -31.585938 19.484375 -26.65625 21.734375 -22.46875 C 23.984375 -18.289062 27 -15.097656 30.78125 -12.890625 C 34.5625 -10.679688 38.742188 -9.578125 43.328125 -9.578125 C 47.921875 -9.578125 52.128906 -10.679688 55.953125 -12.890625 C 59.773438 -15.097656 62.8125 -18.289062 65.0625 -22.46875 C 67.3125 -26.65625 68.4375 -31.539062 68.4375 -37.125 Z M 68.4375 -37.125 "/></g></g></g><g fill="#ffffff" fill-opacity="1"><g transform="translate(76.803945, 307.788261)"><g><path d="M 11.390625 -34.296875 L 11.390625 0 L 3.03125 0 L 3.03125 -34.296875 Z M 11.390625 -34.296875 "/></g></g></g><g fill="#ffffff" fill-opacity="1"><g transform="translate(89.359328, 307.788261)"><g><path d="M 33.71875 0 L 25.359375 0 L 11.390625 -21.15625 L 11.390625 0 L 3.03125 0 L 3.03125 -34.296875 L 11.390625 -34.296875 L 25.359375 -13.046875 L 25.359375 -34.296875 L 33.71875 -34.296875 Z M 33.71875 0 "/></g></g></g><g fill="#ffffff" fill-opacity="1"><g transform="translate(124.241696, 307.788261)"><g><path d="M 27.703125 -34.296875 L 27.703125 -27.609375 L 18.609375 -27.609375 L 18.609375 0 L 10.265625 0 L 10.265625 -27.609375 L 1.171875 -27.609375 L 1.171875 -34.296875 Z M 27.703125 -34.296875 "/></g></g></g><g fill="#ffffff" fill-opacity="1"><g transform="translate(151.258322, 307.788261)"><g><path d="M 11.390625 -27.609375 L 11.390625 -20.671875 L 22.578125 -20.671875 L 22.578125 -14.21875 L 11.390625 -14.21875 L 11.390625 -6.6875 L 24.03125 -6.6875 L 24.03125 0 L 3.03125 0 L 3.03125 -34.296875 L 24.03125 -34.296875 L 24.03125 -27.609375 Z M 11.390625 -27.609375 "/></g></g></g><g fill="#ffffff" fill-opacity="1"><g transform="translate(175.832173, 307.788261)"><g><path d="M 20.515625 0 L 13.390625 -12.953125 L 11.390625 -12.953125 L 11.390625 0 L 3.03125 0 L 3.03125 -34.296875 L 17.046875 -34.296875 C 19.753906 -34.296875 22.0625 -33.820312 23.96875 -32.875 C 25.875 -31.9375 27.296875 -30.644531 28.234375 -29 C 29.179688 -27.351562 29.65625 -25.519531 29.65625 -23.5 C 29.65625 -21.21875 29.007812 -19.179688 27.71875 -17.390625 C 26.4375 -15.597656 24.539062 -14.328125 22.03125 -13.578125 L 29.953125 0 Z M 11.390625 -18.859375 L 16.5625 -18.859375 C 18.09375 -18.859375 19.238281 -19.234375 20 -19.984375 C 20.769531 -20.734375 21.15625 -21.789062 21.15625 -23.15625 C 21.15625 -24.457031 20.769531 -25.484375 20 -26.234375 C 19.238281 -26.984375 18.09375 -27.359375 16.5625 -27.359375 L 11.390625 -27.359375 Z M 11.390625 -18.859375 "/></g></g></g><g fill="#ffffff" fill-opacity="1"><g transform="translate(205.82899, 307.788261)"><g><path d="M 33.71875 0 L 25.359375 0 L 11.390625 -21.15625 L 11.390625 0 L 3.03125 0 L 3.03125 -34.296875 L 11.390625 -34.296875 L 25.359375 -13.046875 L 25.359375 -34.296875 L 33.71875 -34.296875 Z M 33.71875 0 "/></g></g></g><g fill="#ffffff" fill-opacity="1"><g transform="translate(240.711358, 307.788261)"><g><path d="M 24.375 -6.0625 L 11.578125 -6.0625 L 9.53125 0 L 0.78125 0 L 13.1875 -34.296875 L 22.859375 -34.296875 L 35.28125 0 L 26.4375 0 Z M 22.234375 -12.515625 L 17.984375 -25.0625 L 13.78125 -12.515625 Z M 22.234375 -12.515625 "/></g></g></g><g fill="#ffffff" fill-opacity="1"><g transform="translate(274.860881, 307.788261)"><g><path d="M 11.390625 -6.453125 L 22.328125 -6.453125 L 22.328125 0 L 3.03125 0 L 3.03125 -34.296875 L 11.390625 -34.296875 Z M 11.390625 -6.453125 "/></g></g></g></svg>